
<svg width="100%" viewBox="0 0 680 360" xmlns="http://www.w3.org/2000/svg">
<defs>
  <style>
    .bg{fill:#08101f}
    .grid{stroke:#111d32;stroke-width:0.5}
    .term{font-family:'Courier New',monospace;font-weight:500}
    .fb{fill:#4fc3f7}.fg{fill:#69f0ae}.fp{fill:#ce93d8}.fa{fill:#ffd54f}.fr{fill:#ff5252}.ft{fill:#80cbc4}.fc{fill:#84ffff}.fl{fill:#b9f6ca}
    .sb{stroke:#4fc3f7;fill:none}.sg{stroke:#69f0ae;fill:none}.sp{stroke:#ce93d8;fill:none}.sa{stroke:#ffd54f;fill:none}.sr{stroke:#ff5252;fill:none}.st{stroke:#80cbc4;fill:none}
    .dim{opacity:0.5}.mdim{opacity:0.3}.xdim{opacity:0.15}
    .icon-stroke{stroke-width:1.2;stroke-linecap:round;stroke-linejoin:round;fill:none}
  </style>
  <linearGradient id="bg2" x1="0%" y1="0%" x2="100%" y2="100%">
    <stop offset="0%" style="stop-color:#050c18"/>
    <stop offset="50%" style="stop-color:#0b1526"/>
    <stop offset="100%" style="stop-color:#06101c"/>
  </linearGradient>
</defs>

<rect width="680" height="360" fill="url(#bg2)"/>

<!-- Grid -->
<g class="grid">
  <line x1="0" y1="45" x2="680" y2="45"/><line x1="0" y1="90" x2="680" y2="90"/>
  <line x1="0" y1="135" x2="680" y2="135"/><line x1="0" y1="180" x2="680" y2="180"/>
  <line x1="0" y1="225" x2="680" y2="225"/><line x1="0" y1="270" x2="680" y2="270"/>
  <line x1="0" y1="315" x2="680" y2="315"/>
  <line x1="68" y1="0" x2="68" y2="360"/><line x1="136" y1="0" x2="136" y2="360"/>
  <line x1="204" y1="0" x2="204" y2="360"/><line x1="272" y1="0" x2="272" y2="360"/>
  <line x1="340" y1="0" x2="340" y2="360"/><line x1="408" y1="0" x2="408" y2="360"/>
  <line x1="476" y1="0" x2="476" y2="360"/><line x1="544" y1="0" x2="544" y2="360"/>
  <line x1="612" y1="0" x2="612" y2="360"/>
</g>

<!-- ─────────── ROW 1: LANG LABELS ─────────── -->
<text x="8"  y="22" class="term fb" font-size="11">Python</text>
<text x="64" y="22" class="term fc" font-size="10">JavaScript</text>
<text x="160" y="22" class="term fb" font-size="11">Rust</text>
<text x="200" y="22" class="term fg" font-size="10">Go</text>
<text x="228" y="22" class="term fp" font-size="10">TypeScript</text>
<text x="330" y="22" class="term fa" font-size="11">C++</text>
<text x="364" y="22" class="term fb" font-size="10">Java</text>
<text x="409" y="22" class="term ft" font-size="10">Kotlin</text>
<text x="462" y="22" class="term fr" font-size="10">Swift</text>
<text x="508" y="22" class="term fc" font-size="10">Scala</text>
<text x="556" y="22" class="term fg" font-size="10">Ruby</text>
<text x="598" y="22" class="term fp" font-size="10">Haskell</text>
<text x="657" y="22" class="term fa" font-size="9">Zig</text>

<!-- ─────────── ROW 2: AI/ML LABELS ─────────── -->
<text x="8"  y="55" class="term fp" font-size="10">Neural Network</text>
<text x="110" y="55" class="term fg" font-size="9">Transformer</text>
<text x="190" y="55" class="term fa" font-size="10">GAN</text>
<text x="220" y="55" class="term fb" font-size="10">Attention</text>
<text x="288" y="55" class="term fc" font-size="9">Backprop</text>
<text x="352" y="55" class="term fr" font-size="10">CNN</text>
<text x="384" y="55" class="term fp" font-size="10">LSTM</text>
<text x="428" y="55" class="term ft" font-size="9">Embedding</text>
<text x="500" y="55" class="term fg" font-size="10">RLHF</text>
<text x="545" y="55" class="term fa" font-size="9">Fine-tuning</text>
<text x="620" y="55" class="term fb" font-size="9">LoRA</text>
<text x="655" y="55" class="term fp" font-size="9">SAM</text>

<!-- ─────────────────────────────────────────── -->
<!--   ICON SECTION: 6 iconic tool illustrations  -->
<!-- ─────────────────────────────────────────── -->

<!-- ══ 1. DOCKER WHALE (x=18, y=72) ══ -->
<g transform="translate(18,68)">
  <!-- water waves -->
  <path class="icon-stroke" stroke="#4fc3f7" stroke-width="1" d="M0,32 Q8,28 16,32 Q24,36 32,32"/>
  <path class="icon-stroke" stroke="#4fc3f7" stroke-width="0.7" opacity="0.5" d="M4,36 Q12,32 20,36 Q28,40 36,36"/>
  <!-- whale body -->
  <ellipse cx="18" cy="22" rx="14" ry="9" fill="#1a3a5c" stroke="#4fc3f7" stroke-width="1"/>
  <!-- tail fin -->
  <path d="M4,22 Q-2,14 2,10 Q6,18 4,22Z" fill="#1a3a5c" stroke="#4fc3f7" stroke-width="0.8"/>
  <!-- cargo containers on back -->
  <rect x="8"  y="13" width="7" height="5" rx="1" fill="#0a2040" stroke="#4fc3f7" stroke-width="0.8"/>
  <rect x="17" y="13" width="7" height="5" rx="1" fill="#0a2040" stroke="#69f0ae" stroke-width="0.8"/>
  <rect x="26" y="13" width="5" height="5" rx="1" fill="#0a2040" stroke="#ffd54f" stroke-width="0.8"/>
  <!-- spout -->
  <path class="icon-stroke" stroke="#4fc3f7" stroke-width="1" d="M26,14 Q28,8 32,6 Q30,10 34,8"/>
  <!-- eye -->
  <circle cx="28" cy="22" r="1.5" fill="#4fc3f7"/>
  <!-- label -->
  <text x="18" y="50" text-anchor="middle" font-family="'Courier New',monospace" font-size="8" fill="#4fc3f7">Docker</text>
</g>

<!-- ══ 2. TERMINAL / MSF CONSOLE (x=108, y=68) ══ -->
<g transform="translate(108,68)">
  <!-- window frame -->
  <rect x="0" y="0" width="64" height="44" rx="4" fill="#0d1f0d" stroke="#69f0ae" stroke-width="1"/>
  <!-- title bar -->
  <rect x="0" y="0" width="64" height="10" rx="4" fill="#143314"/>
  <rect x="0" y="5"  width="64" height="5"  fill="#143314"/>
  <!-- traffic lights -->
  <circle cx="6"  cy="5" r="2" fill="#ff5252"/>
  <circle cx="13" cy="5" r="2" fill="#ffd54f"/>
  <circle cx="20" cy="5" r="2" fill="#69f0ae"/>
  <!-- msf banner lines -->
  <text x="4" y="20" font-family="'Courier New',monospace" font-size="6" fill="#69f0ae">msf6 &gt; use exploit/</text>
  <text x="4" y="28" font-family="'Courier New',monospace" font-size="6" fill="#69f0ae" opacity="0.7">multi/handler</text>
  <text x="4" y="36" font-family="'Courier New',monospace" font-size="6" fill="#ffd54f">[*] Started handler</text>
  <!-- cursor blink -->
  <rect x="4" y="38" width="4" height="6" fill="#69f0ae" opacity="0.9"/>
  <text x="32" y="56" text-anchor="middle" font-family="'Courier New',monospace" font-size="8" fill="#69f0ae">Metasploit</text>
</g>

<!-- ══ 3. NEURAL NETWORK NODES (x=204, y=68) ══ -->
<g transform="translate(204,68)">
  <!-- input layer -->
  <circle cx="8"  cy="10" r="4" fill="#0a1a2a" stroke="#ce93d8" stroke-width="1"/>
  <circle cx="8"  cy="24" r="4" fill="#0a1a2a" stroke="#ce93d8" stroke-width="1"/>
  <circle cx="8"  cy="38" r="4" fill="#0a1a2a" stroke="#ce93d8" stroke-width="1"/>
  <!-- hidden layer 1 -->
  <circle cx="28" cy="6"  r="4" fill="#1a0a2a" stroke="#4fc3f7" stroke-width="1"/>
  <circle cx="28" cy="18" r="4" fill="#1a0a2a" stroke="#4fc3f7" stroke-width="1.5"/>
  <circle cx="28" cy="30" r="4" fill="#1a0a2a" stroke="#4fc3f7" stroke-width="1"/>
  <circle cx="28" cy="42" r="4" fill="#1a0a2a" stroke="#4fc3f7" stroke-width="0.7"/>
  <!-- hidden layer 2 -->
  <circle cx="48" cy="12" r="4" fill="#1a1a0a" stroke="#ffd54f" stroke-width="1"/>
  <circle cx="48" cy="26" r="4" fill="#1a1a0a" stroke="#ffd54f" stroke-width="1.5"/>
  <circle cx="48" cy="40" r="4" fill="#1a1a0a" stroke="#ffd54f" stroke-width="0.8"/>
  <!-- output layer -->
  <circle cx="64" cy="18" r="4" fill="#0a2a0a" stroke="#69f0ae" stroke-width="1.5"/>
  <circle cx="64" cy="32" r="4" fill="#0a2a0a" stroke="#69f0ae" stroke-width="1"/>
  <!-- connections (selected) -->
  <line x1="12" y1="24" x2="24" y2="18" stroke="#ce93d8" stroke-width="0.6" opacity="0.6"/>
  <line x1="12" y1="24" x2="24" y2="30" stroke="#ce93d8" stroke-width="1.2" opacity="0.9"/>
  <line x1="12" y1="10" x2="24" y2="18" stroke="#ce93d8" stroke-width="0.4" opacity="0.4"/>
  <line x1="12" y1="38" x2="24" y2="30" stroke="#ce93d8" stroke-width="0.8" opacity="0.7"/>
  <line x1="32" y1="18" x2="44" y2="26" stroke="#4fc3f7" stroke-width="1.5" opacity="0.9"/>
  <line x1="32" y1="30" x2="44" y2="26" stroke="#4fc3f7" stroke-width="0.6" opacity="0.5"/>
  <line x1="32" y1="6"  x2="44" y2="12" stroke="#4fc3f7" stroke-width="0.8" opacity="0.6"/>
  <line x1="32" y1="42" x2="44" y2="40" stroke="#4fc3f7" stroke-width="0.4" opacity="0.4"/>
  <line x1="52" y1="26" x2="60" y2="18" stroke="#ffd54f" stroke-width="1.4" opacity="0.9"/>
  <line x1="52" y1="26" x2="60" y2="32" stroke="#ffd54f" stroke-width="0.7" opacity="0.6"/>
  <line x1="52" y1="12" x2="60" y2="18" stroke="#ffd54f" stroke-width="0.5" opacity="0.4"/>
  <line x1="52" y1="40" x2="60" y2="32" stroke="#ffd54f" stroke-width="0.6" opacity="0.5"/>
  <text x="36" y="56" text-anchor="middle" font-family="'Courier New',monospace" font-size="8" fill="#ce93d8">Deep Learning</text>
</g>

<!-- ══ 4. SHIELD / SECURITY (x=304, y=68) ══ -->
<g transform="translate(304,68)">
  <!-- shield shape -->
  <path d="M28,2 L50,10 L50,28 Q50,44 28,52 Q6,44 6,28 L6,10 Z" fill="#0a1a0a" stroke="#69f0ae" stroke-width="1.2"/>
  <!-- inner shield glow -->
  <path d="M28,8 L44,14 L44,28 Q44,40 28,46 Q12,40 12,28 L12,14 Z" fill="#041408" stroke="#69f0ae" stroke-width="0.5" opacity="0.5"/>
  <!-- checkmark / lock icon inside -->
  <rect x="22" y="22" width="12" height="10" rx="2" fill="none" stroke="#69f0ae" stroke-width="1.2"/>
  <path d="M25,22 Q25,16 31,16 Q37,16 37,22" fill="none" stroke="#69f0ae" stroke-width="1.2" stroke-linecap="round"/>
  <circle cx="28" cy="27" r="2" fill="#69f0ae" opacity="0.8"/>
  <!-- circuit lines decoration -->
  <line x1="6"  y1="20" x2="0"  y2="20" stroke="#69f0ae" stroke-width="0.6" opacity="0.5"/>
  <line x1="50" y1="20" x2="56" y2="20" stroke="#69f0ae" stroke-width="0.6" opacity="0.5"/>
  <line x1="0"  y1="20" x2="0"  y2="28" stroke="#69f0ae" stroke-width="0.6" opacity="0.5"/>
  <text x="28" y="62" text-anchor="middle" font-family="'Courier New',monospace" font-size="8" fill="#69f0ae">CyberSec</text>
</g>

<!-- ══ 5. KUBERNETES / CLOUD INFRA (x=400, y=68) ══ -->
<g transform="translate(400,68)">
  <!-- hexagon outline (k8s style) -->
  <polygon points="28,2 50,14 50,38 28,50 6,38 6,14" fill="#060e1a" stroke="#4fc3f7" stroke-width="1.2"/>
  <polygon points="28,8 44,17 44,35 28,44 12,35 12,17" fill="none" stroke="#4fc3f7" stroke-width="0.5" opacity="0.4"/>
  <!-- helm wheel spokes -->
  <line x1="28" y1="12" x2="28" y2="20" stroke="#4fc3f7" stroke-width="1" opacity="0.7"/>
  <line x1="28" y1="32" x2="28" y2="40" stroke="#4fc3f7" stroke-width="1" opacity="0.7"/>
  <line x1="14" y1="19" x2="21" y2="23" stroke="#4fc3f7" stroke-width="1" opacity="0.7"/>
  <line x1="35" y1="29" x2="42" y2="33" stroke="#4fc3f7" stroke-width="1" opacity="0.7"/>
  <line x1="14" y1="33" x2="21" y2="29" stroke="#4fc3f7" stroke-width="1" opacity="0.7"/>
  <line x1="35" y1="23" x2="42" y2="19" stroke="#4fc3f7" stroke-width="1" opacity="0.7"/>
  <!-- center hub -->
  <circle cx="28" cy="26" r="7" fill="#0a1e30" stroke="#4fc3f7" stroke-width="1.2"/>
  <circle cx="28" cy="26" r="3" fill="#4fc3f7" opacity="0.8"/>
  <text x="28" y="62" text-anchor="middle" font-family="'Courier New',monospace" font-size="8" fill="#4fc3f7">Kubernetes</text>
</g>

<!-- ══ 6. PYTHON SNAKE / LLM (x=500, y=68) ══ -->
<g transform="translate(498,68)">
  <!-- snake body -->
  <path d="M18,6 Q32,6 32,18 Q32,28 18,28 Q8,28 8,38 Q8,48 22,48" fill="none" stroke="#ffd54f" stroke-width="3" stroke-linecap="round"/>
  <!-- second snake (intertwined) -->
  <path d="M22,2 Q10,2 10,14 Q10,24 22,24 Q34,24 34,34 Q34,46 20,46" fill="none" stroke="#4fc3f7" stroke-width="3" stroke-linecap="round" opacity="0.8"/>
  <!-- head 1 -->
  <ellipse cx="18" cy="5" rx="5" ry="3.5" fill="#ffd54f"/>
  <circle cx="16" cy="4" r="1" fill="#08101f"/>
  <!-- head 2 -->
  <ellipse cx="22" cy="2" rx="5" ry="3.5" fill="#4fc3f7" opacity="0.9"/>
  <circle cx="24" cy="1" r="1" fill="#08101f"/>
  <text x="22" y="62" text-anchor="middle" font-family="'Courier New',monospace" font-size="8" fill="#ffd54f">Python</text>
</g>

<!-- ══ 7. NMAP / NETWORK SCAN (x=592, y=68) ══ -->
<g transform="translate(590,68)">
  <!-- radar circles -->
  <circle cx="28" cy="26" r="24" fill="none" stroke="#ff5252" stroke-width="0.5" opacity="0.3"/>
  <circle cx="28" cy="26" r="16" fill="none" stroke="#ff5252" stroke-width="0.5" opacity="0.5"/>
  <circle cx="28" cy="26" r="8"  fill="none" stroke="#ff5252" stroke-width="0.8" opacity="0.7"/>
  <!-- crosshair -->
  <line x1="28" y1="2"  x2="28" y2="50" stroke="#ff5252" stroke-width="0.5" opacity="0.3"/>
  <line x1="4"  y1="26" x2="52" y2="26" stroke="#ff5252" stroke-width="0.5" opacity="0.3"/>
  <!-- sweep line -->
  <line x1="28" y1="26" x2="50" y2="10" stroke="#ff5252" stroke-width="1.2" opacity="0.8"/>
  <!-- detected nodes -->
  <circle cx="44" cy="14" r="2.5" fill="#ff5252" opacity="0.9"/>
  <circle cx="20" cy="14" r="1.5" fill="#ff5252" opacity="0.5"/>
  <circle cx="38" cy="36" r="2"   fill="#ffd54f" opacity="0.7"/>
  <circle cx="16" cy="32" r="1.5" fill="#ff5252" opacity="0.4"/>
  <!-- center dot -->
  <circle cx="28" cy="26" r="2.5" fill="#ff5252"/>
  <text x="28" y="62" text-anchor="middle" font-family="'Courier New',monospace" font-size="8" fill="#ff5252">Nmap</text>
</g>

<!-- ─────────── CENTER TITLE ─────────── -->
<rect x="160" y="145" width="360" height="72" rx="3" fill="#06090f" opacity="0.9"/>
<rect x="160" y="145" width="360" height="72" rx="3" fill="none" stroke="#4fc3f7" stroke-width="0.8" opacity="0.7"/>
<rect x="162" y="147" width="356" height="68" rx="2" fill="none" stroke="#ce93d8" stroke-width="0.3" opacity="0.4"/>
<!-- corner marks -->
<polyline points="160,160 160,145 175,145" stroke="#4fc3f7" stroke-width="1.5" fill="none"/>
<polyline points="520,145 535,145 535,160" stroke="#4fc3f7" stroke-width="1.5" fill="none"/>
<polyline points="160,202 160,217 175,217" stroke="#69f0ae" stroke-width="1.5" fill="none"/>
<polyline points="520,217 535,217 535,202" stroke="#69f0ae" stroke-width="1.5" fill="none"/>

<text x="340" y="172" text-anchor="middle" font-family="'Courier New',monospace" font-size="22" font-weight="700" fill="#4fc3f7">TECH UNIVERSE</text>
<text x="340" y="191" text-anchor="middle" font-family="'Courier New',monospace" font-size="8" fill="#84ffff" letter-spacing="3">AI · ML · DL · CYBERSECURITY · DEV</text>
<text x="340" y="208" text-anchor="middle" font-family="'Courier New',monospace" font-size="7" fill="#69f0ae" letter-spacing="1">[ PROGRAMMING · TOOLS · FRAMEWORKS · NETWORKS ]</text>

<!-- ─────────── LOWER LABELS ─────────── -->
<!-- Row: Security tools -->
<text x="8"   y="248" class="term fr" font-size="9">Metasploit</text>
<text x="74"  y="248" class="term fg" font-size="9">Nmap</text>
<text x="104" y="248" class="term fc" font-size="9">Wireshark</text>
<text x="172" y="248" class="term fp" font-size="9">Burp Suite</text>
<text x="240" y="248" class="term fa" font-size="9">Shodan</text>
<text x="294" y="248" class="term fb" font-size="9">OWASP</text>
<text x="346" y="248" class="term ft" font-size="9">Kali Linux</text>
<text x="415" y="248" class="term fr" font-size="9">SIEM</text>
<text x="450" y="248" class="term fg" font-size="9">Honeypot</text>
<text x="516" y="248" class="term fp" font-size="9">IDS / IPS</text>
<text x="580" y="248" class="term fc" font-size="9">WAF</text>
<text x="610" y="248" class="term fa" font-size="9">Zero-day</text>
<text x="660" y="248" class="term fr" font-size="8">CVE</text>

<!-- Row: DevOps / Cloud -->
<text x="8"   y="270" class="term fb" font-size="9">Kubernetes</text>
<text x="75"  y="270" class="term fc" font-size="9">Docker</text>
<text x="118" y="270" class="term fg" font-size="9">Terraform</text>
<text x="182" y="270" class="term fp" font-size="9">Ansible</text>
<text x="230" y="270" class="term fa" font-size="9">Helm</text>
<text x="262" y="270" class="term ft" font-size="9">ArgoCD</text>
<text x="315" y="270" class="term fr" font-size="9">Istio</text>
<text x="350" y="270" class="term fb" font-size="9">Prometheus</text>
<text x="428" y="270" class="term fg" font-size="9">Grafana</text>
<text x="482" y="270" class="term fp" font-size="9">CI / CD</text>
<text x="526" y="270" class="term fa" font-size="9">GitOps</text>
<text x="574" y="270" class="term fc" font-size="9">Pulumi</text>
<text x="622" y="270" class="term fb" font-size="9">Envoy</text>
<text x="660" y="270" class="term fg" font-size="8">k3s</text>

<!-- Row: ML frameworks -->
<text x="8"   y="292" class="term fp" font-size="9">TensorFlow</text>
<text x="78"  y="292" class="term fr" font-size="9">PyTorch</text>
<text x="126" y="292" class="term fa" font-size="9">Hugging Face</text>
<text x="214" y="292" class="term fb" font-size="9">LangChain</text>
<text x="280" y="292" class="term fg" font-size="9">RAG</text>
<text x="307" y="292" class="term ft" font-size="9">Vector DB</text>
<text x="374" y="292" class="term fp" font-size="9">Quantization</text>
<text x="454" y="292" class="term fa" font-size="9">Edge AI</text>
<text x="504" y="292" class="term fc" font-size="9">MLOps</text>
<text x="548" y="292" class="term fr" font-size="9">LLM</text>
<text x="575" y="292" class="term fg" font-size="9">Multimodal</text>
<text x="648" y="292" class="term fp" font-size="8">AGI</text>

<!-- Row: concepts -->
<text x="8"   y="314" class="term ft" font-size="9">Reinforcement RL</text>
<text x="116" y="314" class="term fb" font-size="9">Federated Learning</text>
<text x="238" y="314" class="term fa" font-size="9">Zero Trust</text>
<text x="296" y="314" class="term fg" font-size="9">RBAC</text>
<text x="332" y="314" class="term fr" font-size="9">mTLS</text>
<text x="368" y="314" class="term fp" font-size="9">MITRE ATT&amp;CK</text>
<text x="455" y="314" class="term fc" font-size="9">Prompt Injection</text>
<text x="555" y="314" class="term fa" font-size="9">Data Poisoning</text>
<text x="648" y="314" class="term fr" font-size="8">APT</text>

<!-- Row: last row -->
<text x="8"   y="336" class="term fb" font-size="8">Blockchain</text>
<text x="68"  y="336" class="term fg" font-size="8">GraphQL</text>
<text x="122" y="336" class="term fp" font-size="8">gRPC</text>
<text x="154" y="336" class="term fa" font-size="8">WebSocket</text>
<text x="218" y="336" class="term fc" font-size="8">WASM</text>
<text x="258" y="336" class="term fr" font-size="8">Ransomware</text>
<text x="326" y="336" class="term ft" font-size="8">Phishing</text>
<text x="376" y="336" class="term fb" font-size="8">Model Inversion</text>
<text x="466" y="336" class="term fg" font-size="8">Jailbreak</text>
<text x="516" y="336" class="term fp" font-size="8">Adversarial Attack</text>
<text x="630" y="336" class="term fa" font-size="8">NLP</text>
<text x="656" y="336" class="term fc" font-size="8">CV</text>

<!-- decorative binary margin -->
<text x="1" y="200" font-family="monospace" font-size="6" fill="#1a3a20" opacity="0.5">01101</text>
<text x="1" y="210" font-family="monospace" font-size="6" fill="#1a3a20" opacity="0.4">10110</text>
<text x="1" y="220" font-family="monospace" font-size="6" fill="#1a3a20" opacity="0.3">01011</text>
<text x="661" y="200" font-family="monospace" font-size="6" fill="#1a2a3a" opacity="0.5">10110</text>
<text x="661" y="210" font-family="monospace" font-size="6" fill="#1a2a3a" opacity="0.4">01101</text>
<text x="661" y="220" font-family="monospace" font-size="6" fill="#1a2a3a" opacity="0.3">11001</text>
</svg>
