
<svg width="100%" viewBox="0 0 680 360" xmlns="http://www.w3.org/2000/svg">
<defs>
  <style>
    .bg{fill:#07101e}
    .grid{stroke:#0f1c2e;stroke-width:0.5}
    .term{font-family:'Courier New',monospace;font-weight:500}
    .fb{fill:#4fc3f7}.fg{fill:#69f0ae}.fp{fill:#ce93d8}.fa{fill:#ffd54f}.fr{fill:#ff5252}.ft{fill:#80cbc4}.fc{fill:#84ffff}
    .ik{stroke-linecap:round;stroke-linejoin:round;fill:none}
  </style>
  <linearGradient id="bgr" x1="0%" y1="0%" x2="100%" y2="100%">
    <stop offset="0%" stop-color="#040c18"/>
    <stop offset="60%" stop-color="#091422"/>
    <stop offset="100%" stop-color="#050e1a"/>
  </linearGradient>
</defs>

<rect width="680" height="360" fill="url(#bgr)"/>

<!-- subtle grid -->
<g class="grid">
  <line x1="0" y1="45" x2="680" y2="45"/><line x1="0" y1="90" x2="680" y2="90"/>
  <line x1="0" y1="135" x2="680" y2="135"/><line x1="0" y1="180" x2="680" y2="180"/>
  <line x1="0" y1="225" x2="680" y2="225"/><line x1="0" y1="270" x2="680" y2="270"/>
  <line x1="0" y1="315" x2="680" y2="315"/>
  <line x1="68" y1="0" x2="68" y2="360"/><line x1="136" y1="0" x2="136" y2="360"/>
  <line x1="204" y1="0" x2="204" y2="360"/><line x1="272" y1="0" x2="272" y2="360"/>
  <line x1="340" y1="0" x2="340" y2="360"/><line x1="408" y1="0" x2="408" y2="360"/>
  <line x1="476" y1="0" x2="476" y2="360"/><line x1="544" y1="0" x2="544" y2="360"/>
  <line x1="612" y1="0" x2="612" y2="360"/>
</g>

<!-- ═══════════════════════════════════════════ -->
<!--           SCATTERED ICONS                  -->
<!-- ═══════════════════════════════════════════ -->

<!-- 1. DOCKER WHALE (top-left, small) -->
<g transform="translate(8,6) scale(0.72)">
  <path stroke="#4fc3f7" stroke-width="1" fill="none" d="M0,28 Q7,24 14,28 Q21,32 28,28"/>
  <ellipse cx="16" cy="19" rx="12" ry="8" fill="#0d1e30" stroke="#4fc3f7" stroke-width="1"/>
  <path d="M4,19 Q-1,12 2,8 Q5,16 4,19Z" fill="#0d1e30" stroke="#4fc3f7" stroke-width="0.8"/>
  <rect x="7"  y="11" width="6" height="5" rx="1" fill="#061420" stroke="#4fc3f7" stroke-width="0.8"/>
  <rect x="15" y="11" width="6" height="5" rx="1" fill="#061420" stroke="#69f0ae" stroke-width="0.8"/>
  <rect x="23" y="11" width="4" height="5" rx="1" fill="#061420" stroke="#ffd54f" stroke-width="0.8"/>
  <path stroke="#4fc3f7" stroke-width="0.9" fill="none" d="M23,12 Q26,6 29,4"/>
  <circle cx="25" cy="19" r="1.5" fill="#4fc3f7"/>
  <text x="14" y="40" text-anchor="middle" font-family="'Courier New',monospace" font-size="7" fill="#4fc3f7">Docker</text>
</g>

<!-- 2. KALI LINUX DRAGON (x=58, y=4) -->
<g transform="translate(58,4)">
  <!-- dragon head outline -->
  <path d="M14,2 Q22,0 26,6 Q30,12 26,18 Q24,22 18,22 Q10,22 7,16 Q4,10 8,5 Z" fill="#0e0e22" stroke="#ce93d8" stroke-width="1.2"/>
  <!-- eye -->
  <circle cx="20" cy="10" r="3" fill="#ce93d8" opacity="0.8"/>
  <circle cx="21" cy="9"  r="1.2" fill="#07091a"/>
  <!-- horn -->
  <path d="M22,2 L26,-4 L24,4" fill="#ce93d8" opacity="0.7"/>
  <!-- wing suggestion -->
  <path d="M7,10 Q0,6 2,14 Q6,18 10,16" fill="#1a0e2a" stroke="#ce93d8" stroke-width="0.8"/>
  <!-- scales pattern -->
  <path d="M12,8 Q14,6 16,8" fill="none" stroke="#ce93d8" stroke-width="0.5" opacity="0.5"/>
  <path d="M10,13 Q13,11 15,13" fill="none" stroke="#ce93d8" stroke-width="0.5" opacity="0.5"/>
  <text x="14" y="34" text-anchor="middle" font-family="'Courier New',monospace" font-size="7" fill="#ce93d8">Kali</text>
</g>

<!-- 3. MSF TERMINAL (x=340, y=3) -->
<g transform="translate(340,3)">
  <rect x="0" y="0" width="58" height="38" rx="3" fill="#0a1a0a" stroke="#69f0ae" stroke-width="1"/>
  <rect x="0" y="0" width="58" height="9" rx="3" fill="#112211"/>
  <rect x="0" y="5" width="58" height="4" fill="#112211"/>
  <circle cx="5"  cy="4.5" r="1.8" fill="#ff5252"/>
  <circle cx="11" cy="4.5" r="1.8" fill="#ffd54f"/>
  <circle cx="17" cy="4.5" r="1.8" fill="#69f0ae"/>
  <text x="3" y="18" font-family="'Courier New',monospace" font-size="5.5" fill="#69f0ae">msf6 &gt; use exploit/</text>
  <text x="3" y="25" font-family="'Courier New',monospace" font-size="5.5" fill="#69f0ae" opacity="0.7">multi/handler</text>
  <text x="3" y="32" font-family="'Courier New',monospace" font-size="5.5" fill="#ffd54f">[*] Session opened</text>
  <rect x="3" y="33" width="4" height="5" fill="#69f0ae" opacity="0.9"/>
  <text x="29" y="50" text-anchor="middle" font-family="'Courier New',monospace" font-size="7" fill="#69f0ae">Metasploit</text>
</g>

<!-- 4. NEURAL NETWORK (x=440, y=60) -->
<g transform="translate(438,58)">
  <circle cx="6"  cy="8"  r="3.5" fill="#0a0a1e" stroke="#ce93d8" stroke-width="1"/>
  <circle cx="6"  cy="20" r="3.5" fill="#0a0a1e" stroke="#ce93d8" stroke-width="1"/>
  <circle cx="6"  cy="32" r="3.5" fill="#0a0a1e" stroke="#ce93d8" stroke-width="1"/>
  <circle cx="22" cy="4"  r="3.5" fill="#0a0a1e" stroke="#4fc3f7" stroke-width="1.2"/>
  <circle cx="22" cy="16" r="3.5" fill="#0a0a1e" stroke="#4fc3f7" stroke-width="1.6"/>
  <circle cx="22" cy="28" r="3.5" fill="#0a0a1e" stroke="#4fc3f7" stroke-width="1"/>
  <circle cx="22" cy="38" r="3.5" fill="#0a0a1e" stroke="#4fc3f7" stroke-width="0.6"/>
  <circle cx="38" cy="10" r="3.5" fill="#0a0a1e" stroke="#ffd54f" stroke-width="1.2"/>
  <circle cx="38" cy="24" r="3.5" fill="#0a0a1e" stroke="#ffd54f" stroke-width="1.6"/>
  <circle cx="38" cy="36" r="3.5" fill="#0a0a1e" stroke="#ffd54f" stroke-width="0.8"/>
  <circle cx="52" cy="16" r="3.5" fill="#0a0a1e" stroke="#69f0ae" stroke-width="1.5"/>
  <circle cx="52" cy="28" r="3.5" fill="#0a0a1e" stroke="#69f0ae" stroke-width="1"/>
  <line x1="10" y1="20" x2="18" y2="16" stroke="#ce93d8" stroke-width="1.2" opacity="0.8"/>
  <line x1="10" y1="20" x2="18" y2="28" stroke="#ce93d8" stroke-width="0.6" opacity="0.5"/>
  <line x1="10" y1="8"  x2="18" y2="16" stroke="#ce93d8" stroke-width="0.5" opacity="0.4"/>
  <line x1="10" y1="32" x2="18" y2="28" stroke="#ce93d8" stroke-width="0.8" opacity="0.6"/>
  <line x1="26" y1="16" x2="34" y2="24" stroke="#4fc3f7" stroke-width="1.4" opacity="0.9"/>
  <line x1="26" y1="28" x2="34" y2="24" stroke="#4fc3f7" stroke-width="0.7" opacity="0.5"/>
  <line x1="26" y1="4"  x2="34" y2="10" stroke="#4fc3f7" stroke-width="0.8" opacity="0.6"/>
  <line x1="42" y1="24" x2="48" y2="16" stroke="#ffd54f" stroke-width="1.4" opacity="0.9"/>
  <line x1="42" y1="24" x2="48" y2="28" stroke="#ffd54f" stroke-width="0.7" opacity="0.6"/>
  <text x="29" y="54" text-anchor="middle" font-family="'Courier New',monospace" font-size="7" fill="#ce93d8">Neural Net</text>
</g>

<!-- 5. SQL INJECTION SYRINGE (x=8, y=105) -->
<g transform="translate(8,102)">
  <!-- syringe body -->
  <rect x="8" y="8" width="34" height="12" rx="3" fill="#0a1520" stroke="#ff5252" stroke-width="1"/>
  <!-- plunger -->
  <rect x="6" y="10" width="4" height="8" rx="1" fill="#ff5252" opacity="0.7"/>
  <!-- needle -->
  <rect x="42" y="12" width="14" height="4" rx="1" fill="#ff5252" opacity="0.8"/>
  <path d="M56,12 L62,14 L56,16Z" fill="#ff5252"/>
  <!-- graduation marks -->
  <line x1="15" y1="8" x2="15" y2="20" stroke="#ff5252" stroke-width="0.5" opacity="0.5"/>
  <line x1="22" y1="8" x2="22" y2="20" stroke="#ff5252" stroke-width="0.5" opacity="0.5"/>
  <line x1="29" y1="8" x2="29" y2="20" stroke="#ff5252" stroke-width="0.5" opacity="0.5"/>
  <line x1="36" y1="8" x2="36" y2="20" stroke="#ff5252" stroke-width="0.5" opacity="0.5"/>
  <!-- payload text inside -->
  <text x="25" y="17" text-anchor="middle" font-family="'Courier New',monospace" font-size="5" fill="#ff5252">' OR 1=1--</text>
  <!-- drip -->
  <path d="M60,16 Q61,20 60,23 Q59,26 60,23 Q61,20 62,16" fill="#ff5252" opacity="0.5"/>
  <text x="32" y="34" text-anchor="middle" font-family="'Courier New',monospace" font-size="7" fill="#ff5252">SQL Injection</text>
</g>

<!-- 6. KUBERNETES HEXAGON (x=614, y=6) -->
<g transform="translate(614,6)">
  <polygon points="28,2 50,14 50,38 28,50 6,38 6,14" fill="#060e1a" stroke="#4fc3f7" stroke-width="1.2"/>
  <polygon points="28,8 44,17 44,35 28,44 12,35 12,17" fill="none" stroke="#4fc3f7" stroke-width="0.4" opacity="0.5"/>
  <line x1="28" y1="12" x2="28" y2="20" stroke="#4fc3f7" stroke-width="1.2" opacity="0.7"/>
  <line x1="28" y1="32" x2="28" y2="40" stroke="#4fc3f7" stroke-width="1.2" opacity="0.7"/>
  <line x1="15" y1="19" x2="22" y2="23" stroke="#4fc3f7" stroke-width="1.2" opacity="0.7"/>
  <line x1="34" y1="29" x2="41" y2="33" stroke="#4fc3f7" stroke-width="1.2" opacity="0.7"/>
  <line x1="15" y1="33" x2="22" y2="29" stroke="#4fc3f7" stroke-width="1.2" opacity="0.7"/>
  <line x1="34" y1="23" x2="41" y2="19" stroke="#4fc3f7" stroke-width="1.2" opacity="0.7"/>
  <circle cx="28" cy="26" r="7" fill="#0a1e30" stroke="#4fc3f7" stroke-width="1.2"/>
  <circle cx="28" cy="26" r="3" fill="#4fc3f7" opacity="0.85"/>
  <text x="28" y="62" text-anchor="middle" font-family="'Courier New',monospace" font-size="7" fill="#4fc3f7">Kubernetes</text>
</g>

<!-- 7. EAGLE / KALI HAWK (x=130, y=60) - stylized eagle side profile -->
<g transform="translate(130,56)">
  <!-- body -->
  <ellipse cx="22" cy="22" rx="14" ry="10" fill="#0e1820" stroke="#ffd54f" stroke-width="1"/>
  <!-- head -->
  <circle cx="34" cy="14" r="8" fill="#0e1820" stroke="#ffd54f" stroke-width="1"/>
  <!-- beak -->
  <path d="M42,13 L50,16 L42,17Z" fill="#ffd54f"/>
  <!-- eye -->
  <circle cx="38" cy="13" r="2" fill="#ffd54f"/>
  <circle cx="38.5" cy="12.5" r="0.8" fill="#070f18"/>
  <!-- wing upper -->
  <path d="M14,18 Q8,8 2,4 Q10,10 14,18Z" fill="#142030" stroke="#ffd54f" stroke-width="0.9"/>
  <!-- wing lower -->
  <path d="M10,24 Q2,20 0,26 Q4,24 10,24Z" fill="#142030" stroke="#ffd54f" stroke-width="0.8"/>
  <!-- tail feathers -->
  <path d="M8,26 Q4,30 2,34 Q7,28 10,28Z" fill="#142030" stroke="#ffd54f" stroke-width="0.8"/>
  <path d="M10,28 Q8,34 6,38 Q10,30 13,30Z" fill="#142030" stroke="#ffd54f" stroke-width="0.7"/>
  <!-- talons -->
  <path d="M28,32 Q26,38 24,40" stroke="#ffd54f" stroke-width="1" fill="none"/>
  <path d="M26,40 Q22,42 20,44" stroke="#ffd54f" stroke-width="0.8" fill="none"/>
  <path d="M26,40 Q28,43 28,46" stroke="#ffd54f" stroke-width="0.8" fill="none"/>
  <text x="24" y="56" text-anchor="middle" font-family="'Courier New',monospace" font-size="7" fill="#ffd54f">Kali Eagle</text>
</g>

<!-- 8. WIRESHARK SHARK FIN (x=200, y=100) -->
<g transform="translate(200,96)">
  <!-- water surface -->
  <path d="M0,26 Q10,22 20,26 Q30,30 40,26 Q50,22 60,26" stroke="#4fc3f7" stroke-width="1" fill="none"/>
  <!-- shark body under water (partial) -->
  <ellipse cx="30" cy="32" rx="18" ry="7" fill="#0a1e2a" stroke="#4fc3f7" stroke-width="0.8" opacity="0.7"/>
  <!-- dorsal fin above water -->
  <path d="M24,26 L30,4 L36,26Z" fill="#0a1e2a" stroke="#4fc3f7" stroke-width="1.2"/>
  <!-- fin detail lines -->
  <line x1="30" y1="4" x2="28" y2="22" stroke="#4fc3f7" stroke-width="0.5" opacity="0.5"/>
  <!-- eye -->
  <circle cx="44" cy="30" r="1.5" fill="#4fc3f7"/>
  <!-- packet bytes flying -->
  <text x="2"  y="16" font-family="'Courier New',monospace" font-size="5" fill="#4fc3f7" opacity="0.7">ff e2 4a</text>
  <text x="36" y="12" font-family="'Courier New',monospace" font-size="5" fill="#4fc3f7" opacity="0.5">08 00 45</text>
  <text x="28" y="50" text-anchor="middle" font-family="'Courier New',monospace" font-size="7" fill="#4fc3f7">Wireshark</text>
</g>

<!-- 9. PYTHON SNAKE (x=580, y=90) -->
<g transform="translate(576,88)">
  <path d="M18,4 Q32,4 32,16 Q32,26 18,26 Q8,26 8,36 Q8,46 22,46" fill="none" stroke="#ffd54f" stroke-width="3" stroke-linecap="round"/>
  <path d="M22,0 Q10,0 10,12 Q10,22 22,22 Q34,22 34,32 Q34,44 20,44" fill="none" stroke="#4fc3f7" stroke-width="3" stroke-linecap="round" opacity="0.8"/>
  <ellipse cx="18" cy="4" rx="5" ry="3.5" fill="#ffd54f"/>
  <circle cx="16" cy="3" r="1" fill="#070f18"/>
  <ellipse cx="22" cy="1" rx="5" ry="3.5" fill="#4fc3f7" opacity="0.9"/>
  <circle cx="24" cy="0" r="1" fill="#070f18"/>
  <text x="20" y="58" text-anchor="middle" font-family="'Courier New',monospace" font-size="7" fill="#ffd54f">Python</text>
</g>

<!-- 10. NMAP RADAR (x=0, y=195) -->
<g transform="translate(2,192)">
  <circle cx="28" cy="28" r="26" fill="none" stroke="#ff5252" stroke-width="0.5" opacity="0.25"/>
  <circle cx="28" cy="28" r="18" fill="none" stroke="#ff5252" stroke-width="0.5" opacity="0.4"/>
  <circle cx="28" cy="28" r="10" fill="none" stroke="#ff5252" stroke-width="0.8" opacity="0.6"/>
  <line x1="28" y1="2"  x2="28" y2="54" stroke="#ff5252" stroke-width="0.4" opacity="0.3"/>
  <line x1="2"  y1="28" x2="54" y2="28" stroke="#ff5252" stroke-width="0.4" opacity="0.3"/>
  <!-- sweep -->
  <line x1="28" y1="28" x2="50" y2="10" stroke="#ff5252" stroke-width="1.4" opacity="0.9"/>
  <path d="M28,28 L46,12 A22,22 0 0,0 28,6 Z" fill="#ff5252" opacity="0.06"/>
  <!-- nodes -->
  <circle cx="46" cy="14" r="2.5" fill="#ff5252" opacity="0.9"/>
  <circle cx="18" cy="16" r="1.5" fill="#ff5252" opacity="0.5"/>
  <circle cx="40" cy="38" r="2"   fill="#ffd54f" opacity="0.7"/>
  <circle cx="14" cy="34" r="1.5" fill="#ff5252" opacity="0.4"/>
  <circle cx="28" cy="28" r="2.5" fill="#ff5252"/>
  <text x="28" y="68" text-anchor="middle" font-family="'Courier New',monospace" font-size="7" fill="#ff5252">Nmap</text>
</g>

<!-- 11. SHIELD (x=84, y=188) -->
<g transform="translate(84,185)">
  <path d="M24,1 L44,9 L44,26 Q44,40 24,48 Q4,40 4,26 L4,9 Z" fill="#081808" stroke="#69f0ae" stroke-width="1.2"/>
  <path d="M24,7 L38,13 L38,26 Q38,36 24,42 Q10,36 10,26 L10,13 Z" fill="none" stroke="#69f0ae" stroke-width="0.5" opacity="0.4"/>
  <rect x="18" y="20" width="12" height="10" rx="2" fill="none" stroke="#69f0ae" stroke-width="1.2"/>
  <path d="M21,20 Q21,14 27,14 Q33,14 33,20" fill="none" stroke="#69f0ae" stroke-width="1.2" stroke-linecap="round"/>
  <circle cx="24" cy="25" r="2" fill="#69f0ae" opacity="0.8"/>
  <text x="24" y="60" text-anchor="middle" font-family="'Courier New',monospace" font-size="7" fill="#69f0ae">Zero-day</text>
</g>

<!-- 12. REDIS DB CYLINDER (x=630, y=118) -->
<g transform="translate(628,115)">
  <ellipse cx="24" cy="8"  rx="20" ry="6" fill="#1a0808" stroke="#ff5252" stroke-width="1"/>
  <rect x="4" y="8" width="40" height="28" fill="#1a0808" stroke="#ff5252" stroke-width="1"/>
  <ellipse cx="24" cy="36" rx="20" ry="6" fill="#1a0808" stroke="#ff5252" stroke-width="1"/>
  <!-- horizontal lines suggesting data layers -->
  <line x1="4"  y1="16" x2="44" y2="16" stroke="#ff5252" stroke-width="0.5" opacity="0.4"/>
  <line x1="4"  y1="22" x2="44" y2="22" stroke="#ff5252" stroke-width="0.5" opacity="0.4"/>
  <line x1="4"  y1="28" x2="44" y2="28" stroke="#ff5252" stroke-width="0.5" opacity="0.4"/>
  <!-- Redis star logo hint -->
  <text x="24" y="26" text-anchor="middle" font-family="'Courier New',monospace" font-size="8" fill="#ff5252">DB</text>
  <text x="24" y="52" text-anchor="middle" font-family="'Courier New',monospace" font-size="7" fill="#ff5252">Redis</text>
</g>

<!-- 13. LOCK (x=270, y=52) -->
<g transform="translate(268,50)">
  <rect x="4" y="16" width="28" height="22" rx="4" fill="#0a1420" stroke="#80cbc4" stroke-width="1.2"/>
  <path d="M9,16 Q9,4 18,4 Q27,4 27,16" fill="none" stroke="#80cbc4" stroke-width="1.5" stroke-linecap="round"/>
  <circle cx="18" cy="26" r="4" fill="#80cbc4" opacity="0.7"/>
  <line x1="18" y1="27" x2="18" y2="34" stroke="#80cbc4" stroke-width="1.5"/>
  <text x="18" y="52" text-anchor="middle" font-family="'Courier New',monospace" font-size="7" fill="#80cbc4">Crypto</text>
</g>

<!-- 14. BURP SUITE BEE (x=505, y=145) -->
<g transform="translate(502,143)">
  <!-- body stripes -->
  <ellipse cx="18" cy="22" rx="10" ry="14" fill="#1a1200" stroke="#ffd54f" stroke-width="1.2"/>
  <line x1="8"  y1="18" x2="28" y2="18" stroke="#ffd54f" stroke-width="2" opacity="0.6"/>
  <line x1="8"  y1="24" x2="28" y2="24" stroke="#ffd54f" stroke-width="2" opacity="0.6"/>
  <line x1="8"  y1="30" x2="28" y2="30" stroke="#ffd54f" stroke-width="2" opacity="0.6"/>
  <!-- wings -->
  <ellipse cx="6"  cy="14" rx="8" ry="5" fill="#4fc3f7" opacity="0.3" stroke="#4fc3f7" stroke-width="0.8"/>
  <ellipse cx="30" cy="14" rx="8" ry="5" fill="#4fc3f7" opacity="0.3" stroke="#4fc3f7" stroke-width="0.8"/>
  <!-- head -->
  <circle cx="18" cy="8" r="7" fill="#1a1200" stroke="#ffd54f" stroke-width="1.2"/>
  <!-- eyes -->
  <circle cx="15" cy="7" r="1.5" fill="#ffd54f"/>
  <circle cx="21" cy="7" r="1.5" fill="#ffd54f"/>
  <!-- stinger -->
  <path d="M18,36 L17,44 L19,44 Z" fill="#ffd54f"/>
  <!-- antennae -->
  <path d="M15,2 Q12,-4 10,-6" stroke="#ffd54f" stroke-width="0.8" fill="none"/>
  <path d="M21,2 Q24,-4 26,-6" stroke="#ffd54f" stroke-width="0.8" fill="none"/>
  <circle cx="10" cy="-6" r="1.5" fill="#ffd54f"/>
  <circle cx="26" cy="-6" r="1.5" fill="#ffd54f"/>
  <text x="18" y="56" text-anchor="middle" font-family="'Courier New',monospace" font-size="7" fill="#ffd54f">Burp Suite</text>
</g>

<!-- 15. GIT BRANCH (x=350, y=215) -->
<g transform="translate(348,212)">
  <circle cx="8"  cy="8"  r="4" fill="#0e0e1e" stroke="#ce93d8" stroke-width="1.2"/>
  <circle cx="8"  cy="28" r="4" fill="#0e0e1e" stroke="#ce93d8" stroke-width="1.2"/>
  <circle cx="8"  cy="48" r="4" fill="#0e0e1e" stroke="#ce93d8" stroke-width="1.2"/>
  <circle cx="28" cy="18" r="4" fill="#0e0e1e" stroke="#69f0ae" stroke-width="1.2"/>
  <circle cx="28" cy="38" r="4" fill="#0e0e1e" stroke="#69f0ae" stroke-width="1.2"/>
  <line x1="8" y1="12" x2="8" y2="24" stroke="#ce93d8" stroke-width="1.2"/>
  <line x1="8" y1="32" x2="8" y2="44" stroke="#ce93d8" stroke-width="1.2"/>
  <path d="M8,12 Q8,18 24,18" fill="none" stroke="#69f0ae" stroke-width="1.2"/>
  <path d="M24,22 Q24,28 8,28" fill="none" stroke="#69f0ae" stroke-width="1" stroke-dasharray="3,2"/>
  <path d="M8,32 Q8,38 24,38" fill="none" stroke="#69f0ae" stroke-width="1.2"/>
  <text x="18" y="64" text-anchor="middle" font-family="'Courier New',monospace" font-size="7" fill="#ce93d8">Git</text>
</g>

<!-- 16. ANSIBLE ROCKET (x=420, y=245) -->
<g transform="translate(418,242)">
  <!-- rocket body -->
  <path d="M16,2 Q22,2 24,10 L24,32 Q24,36 16,40 Q8,36 8,32 L8,10 Q10,2 16,2Z" fill="#0a0e20" stroke="#4fc3f7" stroke-width="1.2"/>
  <!-- nose cone -->
  <path d="M8,10 Q16,0 24,10Z" fill="#4fc3f7" opacity="0.5"/>
  <!-- window -->
  <circle cx="16" cy="18" r="4" fill="#0a1a30" stroke="#4fc3f7" stroke-width="1"/>
  <circle cx="16" cy="18" r="2" fill="#4fc3f7" opacity="0.4"/>
  <!-- fins -->
  <path d="M8,28 L2,38 L8,34Z" fill="#1a1e30" stroke="#4fc3f7" stroke-width="0.8"/>
  <path d="M24,28 L30,38 L24,34Z" fill="#1a1e30" stroke="#4fc3f7" stroke-width="0.8"/>
  <!-- flame -->
  <path d="M11,40 Q16,50 21,40 Q18,46 16,50 Q14,46 11,40Z" fill="#ffd54f" opacity="0.7"/>
  <path d="M13,40 Q16,46 19,40 Q17,44 16,47 Q15,44 13,40Z" fill="#ff5252" opacity="0.6"/>
  <text x="16" y="64" text-anchor="middle" font-family="'Courier New',monospace" font-size="7" fill="#4fc3f7">Ansible</text>
</g>

<!-- 17. BINARY SKULL (x=555, y=240) - hacker symbol -->
<g transform="translate(552,238)">
  <!-- skull shape -->
  <circle cx="20" cy="16" r="14" fill="#1a0a0a" stroke="#ff5252" stroke-width="1.2"/>
  <rect x="10" y="24" width="20" height="10" rx="2" fill="#1a0a0a" stroke="#ff5252" stroke-width="1.2"/>
  <!-- eye sockets -->
  <ellipse cx="14" cy="14" rx="4" ry="4.5" fill="#ff5252" opacity="0.8"/>
  <ellipse cx="26" cy="14" rx="4" ry="4.5" fill="#ff5252" opacity="0.8"/>
  <!-- nose -->
  <path d="M18,20 L20,22 L22,20" fill="none" stroke="#ff5252" stroke-width="1"/>
  <!-- teeth -->
  <line x1="14" y1="30" x2="14" y2="34" stroke="#ff5252" stroke-width="1.5"/>
  <line x1="18" y1="30" x2="18" y2="34" stroke="#ff5252" stroke-width="1.5"/>
  <line x1="22" y1="30" x2="22" y2="34" stroke="#ff5252" stroke-width="1.5"/>
  <line x1="26" y1="30" x2="26" y2="34" stroke="#ff5252" stroke-width="1.5"/>
  <!-- binary background -->
  <text x="4"  y="6" font-family="'Courier New',monospace" font-size="4" fill="#ff5252" opacity="0.3">101001</text>
  <text x="4"  y="46" font-family="'Courier New',monospace" font-size="4" fill="#ff5252" opacity="0.3">010110</text>
  <text x="20" y="52" text-anchor="middle" font-family="'Courier New',monospace" font-size="7" fill="#ff5252">0xDEAD</text>
</g>

<!-- 18. KAFKA / MESSAGE QUEUE (x=140, y=250) -->
<g transform="translate(138,248)">
  <!-- producer -->
  <rect x="0" y="10" width="16" height="10" rx="2" fill="#0a1020" stroke="#80cbc4" stroke-width="1"/>
  <text x="8" y="18" text-anchor="middle" font-family="'Courier New',monospace" font-size="5" fill="#80cbc4">P</text>
  <!-- queue pipe -->
  <rect x="20" y="2" width="22" height="26" rx="3" fill="#0a1820" stroke="#80cbc4" stroke-width="1"/>
  <line x1="20" y1="10" x2="42" y2="10" stroke="#80cbc4" stroke-width="0.5" opacity="0.5"/>
  <line x1="20" y1="16" x2="42" y2="16" stroke="#80cbc4" stroke-width="0.5" opacity="0.5"/>
  <line x1="20" y1="22" x2="42" y2="22" stroke="#80cbc4" stroke-width="0.5" opacity="0.5"/>
  <rect x="22" y="5"  width="6" height="4" rx="1" fill="#80cbc4" opacity="0.4"/>
  <rect x="22" y="12" width="6" height="4" rx="1" fill="#80cbc4" opacity="0.6"/>
  <rect x="22" y="19" width="6" height="4" rx="1" fill="#80cbc4" opacity="0.3"/>
  <!-- arrows -->
  <line x1="16" y1="15" x2="20" y2="15" stroke="#80cbc4" stroke-width="1"/>
  <line x1="42" y1="10" x2="46" y2="6"  stroke="#80cbc4" stroke-width="1"/>
  <line x1="42" y1="16" x2="46" y2="16" stroke="#80cbc4" stroke-width="1"/>
  <line x1="42" y1="22" x2="46" y2="26" stroke="#80cbc4" stroke-width="1"/>
  <!-- consumers -->
  <rect x="46" y="2"  width="14" height="8"  rx="2" fill="#0a1020" stroke="#80cbc4" stroke-width="0.8"/>
  <rect x="46" y="12" width="14" height="8"  rx="2" fill="#0a1020" stroke="#80cbc4" stroke-width="0.8"/>
  <rect x="46" y="22" width="14" height="8"  rx="2" fill="#0a1020" stroke="#80cbc4" stroke-width="0.8"/>
  <text x="30" y="42" text-anchor="middle" font-family="'Courier New',monospace" font-size="7" fill="#80cbc4">Kafka</text>
</g>

<!-- 19. RANSOMWARE FILE+LOCK (x=60, y=270) -->
<g transform="translate(58,268)">
  <!-- file icon -->
  <path d="M4,2 L22,2 L28,8 L28,38 L4,38 Z" fill="#1a0808" stroke="#ff5252" stroke-width="1"/>
  <path d="M22,2 L22,8 L28,8" fill="none" stroke="#ff5252" stroke-width="1"/>
  <!-- red lock overlay -->
  <rect x="10" y="20" width="12" height="10" rx="2" fill="#2a0808" stroke="#ff5252" stroke-width="1.2"/>
  <path d="M13,20 Q13,14 16,14 Q19,14 19,20" fill="none" stroke="#ff5252" stroke-width="1.2"/>
  <circle cx="16" cy="25" r="1.5" fill="#ff5252"/>
  <!-- danger lines on file -->
  <line x1="8"  y1="10" x2="18" y2="10" stroke="#ff5252" stroke-width="0.6" opacity="0.4"/>
  <line x1="8"  y1="14" x2="20" y2="14" stroke="#ff5252" stroke-width="0.6" opacity="0.4"/>
  <text x="16" y="52" text-anchor="middle" font-family="'Courier New',monospace" font-size="7" fill="#ff5252">Ransomware</text>
</g>

<!-- 20. TRANSFORMER ATTENTION (x=285, y=270) -->
<g transform="translate(282,268)">
  <!-- token row -->
  <rect x="0"  y="28" width="14" height="10" rx="2" fill="#0e0e20" stroke="#ce93d8" stroke-width="0.8"/>
  <rect x="18" y="28" width="14" height="10" rx="2" fill="#0e0e20" stroke="#ce93d8" stroke-width="0.8"/>
  <rect x="36" y="28" width="14" height="10" rx="2" fill="#1a0e26" stroke="#ce93d8" stroke-width="1.4"/>
  <rect x="54" y="28" width="14" height="10" rx="2" fill="#0e0e20" stroke="#ce93d8" stroke-width="0.8"/>
  <rect x="72" y="28" width="14" height="10" rx="2" fill="#0e0e20" stroke="#ce93d8" stroke-width="0.8"/>
  <text x="7"  y="36" text-anchor="middle" font-family="'Courier New',monospace" font-size="5" fill="#ce93d8">the</text>
  <text x="25" y="36" text-anchor="middle" font-family="'Courier New',monospace" font-size="5" fill="#ce93d8">cat</text>
  <text x="43" y="36" text-anchor="middle" font-family="'Courier New',monospace" font-size="5" fill="#ce93d8" font-weight="bold">sat</text>
  <text x="61" y="36" text-anchor="middle" font-family="'Courier New',monospace" font-size="5" fill="#ce93d8">on</text>
  <text x="79" y="36" text-anchor="middle" font-family="'Courier New',monospace" font-size="5" fill="#ce93d8">mat</text>
  <!-- attention lines from center token -->
  <line x1="43" y1="28" x2="7"  y2="12" stroke="#ce93d8" stroke-width="0.5" opacity="0.3"/>
  <line x1="43" y1="28" x2="25" y2="10" stroke="#ce93d8" stroke-width="1"   opacity="0.6"/>
  <line x1="43" y1="28" x2="43" y2="8"  stroke="#ffd54f" stroke-width="2.5" opacity="0.9"/>
  <line x1="43" y1="28" x2="61" y2="10" stroke="#ce93d8" stroke-width="1.5" opacity="0.7"/>
  <line x1="43" y1="28" x2="79" y2="12" stroke="#ce93d8" stroke-width="0.5" opacity="0.25"/>
  <!-- attended token glow -->
  <circle cx="43" cy="6" r="3" fill="#ffd54f" opacity="0.6"/>
  <text x="43" y="56" text-anchor="middle" font-family="'Courier New',monospace" font-size="7" fill="#ce93d8">Attention</text>
</g>

<!-- ═══════════════════════════════════════════ -->
<!--              TEXT LABELS                   -->
<!-- ═══════════════════════════════════════════ -->

<!-- scattered top area labels -->
<text x="310" y="18"  class="term fb" font-size="10">JavaScript</text>
<text x="416" y="14"  class="term fg" font-size="11">Rust</text>
<text x="460" y="20"  class="term fp" font-size="9">TypeScript</text>
<text x="214" y="28"  class="term fa" font-size="10">C++</text>
<text x="254" y="18"  class="term fc" font-size="9">Go</text>
<text x="440" y="36"  class="term fb" font-size="10">Java</text>
<text x="210" y="46"  class="term fg" font-size="9">Kotlin</text>
<text x="412" y="50"  class="term fr" font-size="9">Swift</text>
<text x="506" y="42"  class="term fc" font-size="9">Scala</text>
<text x="310" y="44"  class="term fp" font-size="9">PHP</text>

<!-- mid-right area labels -->
<text x="548" y="76"  class="term fg" font-size="9">GAN</text>
<text x="580" y="90"  class="term fa" font-size="9">LSTM</text>
<text x="536" y="108" class="term fp" font-size="9">Backprop</text>
<text x="600" y="116" class="term fb" font-size="9">ResNet</text>
<text x="544" y="134" class="term fr" font-size="9">BERT</text>
<text x="598" y="148" class="term fg" font-size="9">GPT-4</text>

<!-- lower mid labels -->
<text x="278" y="100" class="term fb" font-size="9">TensorFlow</text>
<text x="356" y="112" class="term fr" font-size="9">PyTorch</text>
<text x="460" y="104" class="term fa" font-size="9">HuggingFace</text>
<text x="268" y="130" class="term fp" font-size="8">LangChain</text>
<text x="380" y="142" class="term fc" font-size="9">RAG</text>
<text x="410" y="126" class="term ft" font-size="8">Vector DB</text>
<text x="490" y="130" class="term fg" font-size="9">MLOps</text>

<!-- center-left labels -->
<text x="310" y="160" class="term fa" font-size="8">Quantization</text>
<text x="280" y="178" class="term fb" font-size="8">Edge AI</text>
<text x="408" y="182" class="term fp" font-size="8">Diffusion</text>

<!-- bottom zone labels -->
<text x="494" y="210" class="term fr" font-size="9">XSS</text>
<text x="528" y="224" class="term fa" font-size="8">CSRF</text>
<text x="556" y="210" class="term fb" font-size="9">OAuth</text>
<text x="602" y="220" class="term fg" font-size="8">JWT</text>
<text x="632" y="208" class="term fp" font-size="8">TLS</text>
<text x="658" y="222" class="term fr" font-size="8">VPN</text>
<text x="470" y="232" class="term ft" font-size="8">HTTPS</text>

<text x="2"   y="310" class="term fb" font-size="8">Blockchain</text>
<text x="68"  y="320" class="term fg" font-size="8">GraphQL</text>
<text x="120" y="310" class="term fp" font-size="8">gRPC</text>
<text x="160" y="322" class="term fa" font-size="8">WebSocket</text>
<text x="225" y="312" class="term fc" font-size="8">WASM</text>
<text x="270" y="324" class="term fr" font-size="8">CI/CD</text>
<text x="488" y="316" class="term fp" font-size="8">Phishing</text>
<text x="540" y="326" class="term ft" font-size="8">MITRE</text>
<text x="588" y="314" class="term fa" font-size="8">Zero Trust</text>
<text x="645" y="326" class="term fr" font-size="8">APT</text>

<text x="320" y="338" class="term fb" font-size="8">GitOps</text>
<text x="368" y="350" class="term fg" font-size="8">Helm</text>
<text x="406" y="338" class="term fp" font-size="8">Istio</text>
<text x="442" y="350" class="term fa" font-size="8">ArgoCD</text>
<text x="498" y="344" class="term fc" font-size="8">Pulumi</text>
<text x="544" y="352" class="term fr" font-size="8">Terraform</text>
<text x="614" y="344" class="term fg" font-size="8">NLP</text>
<text x="648" y="354" class="term fp" font-size="7">AGI</text>

<!-- CENTER TITLE BOX -->
<rect x="168" y="148" width="344" height="68" rx="3" fill="#040c16" opacity="0.92"/>
<rect x="168" y="148" width="344" height="68" rx="3" fill="none" stroke="#4fc3f7" stroke-width="0.8" opacity="0.8"/>
<rect x="170" y="150" width="340" height="64" rx="2" fill="none" stroke="#ce93d8" stroke-width="0.3" opacity="0.5"/>
<polyline points="168,162 168,148 182,148" stroke="#4fc3f7" stroke-width="1.5" fill="none"/>
<polyline points="512,148 512,162" stroke="#4fc3f7" stroke-width="1.5" fill="none"/>
<polyline points="498,148 512,148" stroke="#4fc3f7" stroke-width="1.5" fill="none"/>
<polyline points="168,202 168,216 182,216" stroke="#69f0ae" stroke-width="1.5" fill="none"/>
<polyline points="512,216 512,202" stroke="#69f0ae" stroke-width="1.5" fill="none"/>
<polyline points="498,216 512,216" stroke="#69f0ae" stroke-width="1.5" fill="none"/>
<text x="340" y="175" text-anchor="middle" font-family="'Courier New',monospace" font-size="22" font-weight="700" fill="#4fc3f7">TECH UNIVERSE</text>
<text x="340" y="193" text-anchor="middle" font-family="'Courier New',monospace" font-size="8" fill="#84ffff" letter-spacing="3">AI · ML · DL · CYBERSECURITY · DEV</text>
<text x="340" y="209" text-anchor="middle" font-family="'Courier New',monospace" font-size="7" fill="#69f0ae" letter-spacing="1">[ CODE · TOOLS · FRAMEWORKS · INFRA ]</text>
</svg>
